<svg width="1920" height="800" viewBox="0 0 1920 800" fill="none" xmlns="http://www.w3.org/2000/svg">
<g clip-path="url(#clip0_750_41561)">
<rect width="1920" height="800" fill="#002233"/>
<circle opacity="0.06" cx="1861" cy="101" r="143" fill="white"/>
<circle opacity="0.06" cx="1779.5" cy="335.5" r="44.5" fill="white"/>
<circle opacity="0.06" cx="1282" cy="169" r="14" fill="white"/>
<circle opacity="0.06" cx="1055" cy="749" r="14" fill="white"/>
<circle opacity="0.06" cx="595" cy="119" r="10" fill="white"/>
<circle opacity="0.06" cx="490" cy="712" r="10" fill="white"/>
<path opacity="0.1" d="M-8.99994 422L-704.418 -393.25L686.418 -393.25L-8.99994 422Z" fill="url(#paint0_linear_750_41561)"/>
<path opacity="0.1" d="M-30.9999 731L-726.418 -84.2499L664.418 -84.25L-30.9999 731Z" fill="url(#paint1_linear_750_41561)"/>
<path opacity="0.1" d="M2015 380L1319.58 1195.25L2710.42 1195.25L2015 380Z" fill="url(#paint2_linear_750_41561)"/>
</g>
<defs>
<linearGradient id="paint0_linear_750_41561" x1="5.50122" y1="422" x2="3.07979" y2="45.1889" gradientUnits="userSpaceOnUse">
<stop stop-color="white"/>
<stop offset="1" stop-color="white" stop-opacity="0"/>
</linearGradient>
<linearGradient id="paint1_linear_750_41561" x1="-16.4988" y1="731" x2="-18.9202" y2="354.189" gradientUnits="userSpaceOnUse">
<stop stop-color="white"/>
<stop offset="1" stop-color="white" stop-opacity="0"/>
</linearGradient>
<linearGradient id="paint2_linear_750_41561" x1="2029.5" y1="380" x2="2027.08" y2="756.811" gradientUnits="userSpaceOnUse">
<stop stop-color="white"/>
<stop offset="1" stop-color="white" stop-opacity="0"/>
</linearGradient>
<clipPath id="clip0_750_41561">
<rect width="1920" height="800" fill="white"/>
</clipPath>
</defs>
</svg>
